<svg xmlns="http://www.w3.org/2000/svg" viewBox="0 0 2503.35 1687.15"><defs><style>.cls-1{fill:#ebf3fa;}.cls-15,.cls-2,.cls-3,.cls-6{opacity:0.5;}.cls-26,.cls-3{fill:#aec3ff;}.cls-4{fill:#ffb27d;}.cls-5{fill:#d3784a;}.cls-6,.cls-7{fill:#ed905d;}.cls-8{fill:#dee4ff;}.cls-9{fill:#aebeff;}.cls-10{fill:#8c9df4;}.cls-11{fill:#6a77db;}.cls-12,.cls-15{fill:#fff;}.cls-12,.cls-29{opacity:0.4;}.cls-13{fill:#ed7d2b;}.cls-14{fill:#f99746;}.cls-16{fill:#2b478b;}.cls-17{fill:#fca56b;}.cls-18{fill:#163560;}.cls-19{fill:#1d3566;}.cls-20{fill:#ed985f;}.cls-21{fill:#f8fcff;}.cls-22{fill:#f77d48;}.cls-23{fill:#233862;}.cls-24{fill:#8fadef;}.cls-25{fill:#bbd0ff;}.cls-27{fill:#d2e0ff;}.cls-28{fill:#d4e4f8;}</style></defs><g id="Layer_2" data-name="Layer 2"><g id="_лой_1" data-name="‘лой_1"><path class="cls-1" d="M161.71,1679.14s-237.12-396.46,27.46-642.84c455.91-424.57-100.68-401.76,268.53-772,500.26-501.71,1541.88-190,1680,120.53s-132.91,458,136.66,593.14S2536.87,1397.3,2384,1683.05Z"/><g class="cls-2"><path class="cls-3" d="M1195.81,468.45s21.62-202.27,123.63-324.08c13.56-16.19,40-6.31,39.83,14.8,0,.35,0,.71,0,1.07C1358.35,196.29,1244.35,349.69,1195.81,468.45Z"/><path class="cls-3" d="M1184,526.43s100-253.72,274.79-367.54c10.66-6.94,25.23-4.65,32.57,5.74,4.77,6.77,7,17.41,2,34.12C1479.77,243.33,1285.16,395.21,1184,526.43Z"/></g><path class="cls-3" d="M1117.25,549.3s-8.14,193.25-44,189.51,24.6-214.67,24.6-214.67S945,401.4,875.94,392.25c0,0,64.75,205.58,30.91,193.14S795.7,362.14,795.7,362.14s-168.85-73.65-221.45,24.33-19,160.88,5.63,173.49,192.85,49.38,183.43,70.15-130.77,29.31-189.39-5c0,0,29.74,188.27,123.25,200.8s135-37.52,192.63-28.73,95.49,33.66,63.63,42.33S828.11,815.71,773.34,844,676,887.6,756.87,924.76s235.91,61.67,281.58,3.4l5.72-7.28a35.28,35.28,0,0,1-5.72,7.28c13.55,12.79,26.93,61.84,35.47,99.08,1,6.23,2.85,15,5.83,26.92h0c1.09,5.35,2,9.72,2.53,12.76,12.54,81.88-33.37,207.58-33.37,207.58l17,9.09c70.5-121.06,24.83-244.56,24.83-244.56-26-95.58-6.63-169.13-6.63-169.13s184.61-53.55,137.2-195.41C1221.33,674.49,1178.05,584.08,1117.25,549.3Z"/><path class="cls-3" d="M1458.91,399s-41.5,129.08-17,135.32,35.88-147.17,35.88-147.17,130.3-43.67,177.94-32.94c0,0-92.44,119.52-67.17,119.54S1715.8,353.83,1715.8,353.83s128.92-7.5,139.76,69.7S1829.05,534,1809.79,536.28,1671,522,1672.13,537.94s78.91,51,125.77,42.66c0,0-65.21,116.63-129.76,102.2s-79.68-57.41-119.73-65.61-71-1-52.12,12.42,88.21,14.7,117.38,46.58,53.47,52.3-8.75,57.13-170.13-16.64-186.05-66c-.69-2.16-1.35-4.21-2-6.18a24.85,24.85,0,0,0,2,6.18c-12,5.12-32.7,34.14-47.35,56.56-2.17,3.86-5.5,9.15-10.36,16.3h0c-2,3.25-3.64,5.92-4.76,7.78C1328.29,798.74,1328,892.55,1328,892.55l-13.39,1.86c-17-96.73,43-166.89,43-166.89C1397.87,671,1403,617.88,1403,617.88s-108.45-80-42.87-161.81C1360.09,456.07,1410.49,407.1,1458.91,399Z"/><path class="cls-4" d="M1288,1468.39c-355,188.93-428.79,28.15-428-62,.55-51.34,28-178.86,41.26-319.49,9.8-103.78,12-214.87-10.07-307.61-1-4-1.52-6.35-1.52-6.35s-64.86-254.35,122-377.73,411.12-64.31,509.8,144.77S1642.9,1279.45,1288,1468.39Z"/><path class="cls-5" d="M1289.8,804.57a2.18,2.18,0,0,1-2.5-.3c-34.22-30.69-85.88-48.69-154.21-53.65a2,2,0,0,1-1.82-2.1,2,2,0,0,1,2.1-1.8c69.73,5,122.42,23.62,157.29,55.3a1.38,1.38,0,0,1-.28,2.23Z"/><path class="cls-5" d="M1336.58,945.94a1.84,1.84,0,0,1,1.92,2,250.94,250.94,0,0,1-18.26,69.39c-27.31,61.86-65.81,108.2-117.69,141.64-3.94,2.55-7.92,5-11.91,7.31a2.51,2.51,0,0,1-2.6,0,1.74,1.74,0,0,1-.83-1.52,1.8,1.8,0,0,1,.9-1.57q6.2-3.6,12.32-7.54c51.22-33,89.24-78.8,116.24-140a246.39,246.39,0,0,0,17.9-68,2.09,2.09,0,0,1,2-1.85Z"/><path class="cls-6" d="M1072.26,491.12s163.06,97.09,125.87,157.71-183.66,26.24-183.66,26.24-12.16-14.67-3.75-40.05c9.93-30-1.48-46.08,10.21-69.37C1039,529.62,1072.26,491.12,1072.26,491.12Z"/><path class="cls-7" d="M1060.53,1136.82c-24.65,11.45-17.52,46.76-38.37,70.49s-78,16.44-94.63-14.82c-14.2-26.69,10.45-39.87,42.48-50.41,4.36-1.43,8.85-2.8,13.41-4.17l3.61-1.08c9.08-2.67,15.73-6.78,20.35-11.88a30.71,30.71,0,0,0,4-5.46,32.93,32.93,0,0,0,3.57-9.14c.24-1,.42-2.08.58-3.14,2.1-14.48-3.59-31.6-13-46.78-.71-1.13-1.43-2.26-2.17-3.38-1.62-2.43-3.22-5-4.71-7.76a111.42,111.42,0,0,1-6.24-13.32c-4.09-10.49-6.56-21.79-5.92-32.38,1.15-18.74,12-35.26,40.82-41.1a119.85,119.85,0,0,1,49,.34A146.18,146.18,0,0,1,1107,974.48c2,1,3.94,1.95,5.84,3a186.66,186.66,0,0,1,29.26,19.43c3.28,2.64,6.2,5.19,8.76,7.53q3.12,2.87,6,5.63,4.36,4.13,8.32,8C1294.36,1145.89,1108.15,1114.71,1060.53,1136.82Z"/><path class="cls-7" d="M1347.29,1254.94c135.55-153.53,128.06-437.16,71.34-587.17s-175-211.17-291.15-201.65-131,142-123.54,222.77,66.61,111.33,93.44,159.8,77.13,60.93,77.13,60.93,67.27,25.13,80.45-1.61,17.73-61.59-25.72-82.42-193.38-73.27-206.48-122-9.7-168.1,65-210.2,147.54,82.31,215,103.53S1402.18,645.28,1405,702.3s26.71,87.69,31.22,113.41,7.21,233.63-57.78,325.57-100.37,69.16-129.74,105.49,5.74,64.33,33.52,58S1347.29,1254.94,1347.29,1254.94Z"/><path class="cls-5" d="M859.92,1408.42a2,2,0,0,1-1.86-2c.22-54.94,26.35-90.54,48.24-110.72,23.68-21.85,47-30.59,47.94-31a2,2,0,1,1,1.35,3.67c-.23.09-23.63,8.89-46.75,30.26-21.26,19.65-46.65,54.29-46.86,107.76a2,2,0,0,1-2,2Z"/><rect class="cls-8" x="1013.46" y="1326.65" width="527.06" height="352.28" rx="48.08"/><g class="cls-2"><circle class="cls-9" cx="1126.51" cy="1421.71" r="52.34" transform="translate(-360.51 382.94) rotate(-16.67)"/><path class="cls-10" d="M1144.9,1372.71l-36.79,98a52.34,52.34,0,0,1,36.79-98Z"/><path class="cls-9" d="M1167.05,1617a52.34,52.34,0,1,1-7.45-73.64A52.34,52.34,0,0,1,1167.05,1617Z"/><path class="cls-10" d="M1159.6,1543.33l-66.19,81.09a52.34,52.34,0,0,1,66.19-81.09Z"/><path class="cls-9" d="M1494.77,1440.11a52.34,52.34,0,1,1-30.6-67.4A52.34,52.34,0,0,1,1494.77,1440.11Z"/><path class="cls-10" d="M1464.18,1372.71l-36.79,98a52.34,52.34,0,0,1,36.79-98Z"/><path class="cls-9" d="M1486.32,1617a52.31,52.31,0,0,1-71.3,9.23c-.8-.55-1.57-1.16-2.34-1.79a52.33,52.33,0,1,1,66.19-81.08c.76.63,1.5,1.26,2.22,1.92A52.33,52.33,0,0,1,1486.32,1617Z"/><path class="cls-10" d="M1481.09,1545.25l-66.07,81c-.8-.55-1.57-1.16-2.34-1.79a52.33,52.33,0,1,1,66.19-81.08C1479.63,1544,1480.37,1544.59,1481.09,1545.25Z"/><path class="cls-9" d="M1339.38,1399.29a52.34,52.34,0,1,1-69.71-24.88A52.34,52.34,0,0,1,1339.38,1399.29Z"/><path class="cls-10" d="M1269.67,1374.41,1314.5,1469a52.34,52.34,0,1,1-44.83-94.59Z"/><path class="cls-9" d="M1272.64,1632.46a52.33,52.33,0,1,1,68-29.14A52.32,52.32,0,0,1,1272.64,1632.46Z"/><path class="cls-10" d="M1340.67,1603.32l-97.18-38.89a52.34,52.34,0,0,1,97.18,38.89Z"/></g><path class="cls-11" d="M1298.46,1642.17a36.65,36.65,0,0,0,36.53,36.54h172.53a36.53,36.53,0,0,0,0-73.06H1335A36.63,36.63,0,0,0,1298.46,1642.17Z"/><path class="cls-10" d="M1387.46,1642.17a36.64,36.64,0,0,0,36.52,36.54h83.54a36.53,36.53,0,0,0,0-73.06H1424A36.62,36.62,0,0,0,1387.46,1642.17Z"/><rect class="cls-12" x="1326.89" y="1613.75" width="174.92" height="11.52" rx="5.18" transform="translate(2828.71 3239.01) rotate(-180)"/><path class="cls-13" d="M1471.77,1547.25a38.87,38.87,0,0,0,18.91,51.41l166,76.77a38.73,38.73,0,0,0,32.51-70.3l-166-76.77A38.85,38.85,0,0,0,1471.77,1547.25Z"/><path class="cls-14" d="M1557.42,1586.85a38.84,38.84,0,0,0,18.89,51.41l80.38,37.17a38.73,38.73,0,0,0,32.51-70.3L1608.82,1568A38.83,38.83,0,0,0,1557.42,1586.85Z"/><path class="cls-15" d="M1511.64,1545.94,1670,1619.17a5.5,5.5,0,0,0,7.28-2.68l.52-1.13a5.49,5.49,0,0,0-2.67-7.28l-158.36-73.23a5.52,5.52,0,0,0-7.29,2.68l-.52,1.13A5.51,5.51,0,0,0,1511.64,1545.94Z"/><path class="cls-11" d="M1870.13,877.55s89,94.63-135.81,144.09c-68.5,15.07-168.63-24.71-168.63-24.71s.71-17.24,11.33-21.59c0,0,122.29-4.8,133.32-8,27.87-8.15,91.2-40,110.33-72C1835.25,870.85,1870.13,877.55,1870.13,877.55Z"/><path class="cls-16" d="M1356.63,868.94l-16.13,11.4-18.34,13L1156.9,1010,1118.78,1037l-103.85,73.38c.24-1,.42-2.08.58-3.14,2.1-14.48-3.59-31.6-13-46.78l85-64,25.24-19,174.08-131L1304.84,833l15.78-11.87Z"/><path class="cls-10" d="M1973.67,1640s-2.45,39.55-10.11,40.12c-1,.07-38.81.07-38.81.07l-48.24-.28s.31-11.62,14.42-14.08,37.7-12.37,46.24-31C1946.16,1615.22,1973.67,1640,1973.67,1640Z"/><path class="cls-14" d="M1976.45,1642.75s-14.67,4.91-26.12,4.91a95.88,95.88,0,0,1-24.38-3.48s-2.76-26.7-18-85.54c-8-30.83-19.35-70.48-35.53-119.75-44.75-136.17-58.36-215.83-59.6-223.37-.07-.4-.1-.6-.1-.6l.15-.06,137.58-60.41s-17,187.67,4.69,259.7a302.83,302.83,0,0,1,7.87,34.51C1976.77,1526.91,1976.45,1642.75,1976.45,1642.75Z"/><path class="cls-13" d="M1963.06,1448.66l-55.06,110c-8-30.83-19.35-70.48-35.53-119.75-44.75-136.17-58.36-215.83-59.6-223.37,0-.23,0-.44.05-.66l137.58-60.41s-17,187.67,4.69,259.7A302.83,302.83,0,0,1,1963.06,1448.66Z"/><path class="cls-10" d="M1866.21,1640s-2.45,39.55-10.1,40.12c-1,.07-38.81.07-38.81.07l-48.25-.28s.32-11.62,14.42-14.08,37.7-12.37,46.25-31C1838.7,1615.22,1866.21,1640,1866.21,1640Z"/><path class="cls-14" d="M1788.21,1158.87s-1.79,121.61,19.25,270.93,13.91,212.7,13.91,212.7,14.46,4.68,20.29,5.16c14.86,1.21,30.1-3.48,30.1-3.48s30.12-149.38,21.49-224.11,41.24-256.46,41.24-256.46Z"/><path class="cls-4" d="M1888.41,869.49l-24.12,21.19-39.44-1.74c.1-3.18.82-16.39,1.48-28.36.05-.71.09-1.42.13-2.11l1.08-18.94,33.66-20.89,12.54-7.8c0,.22.52,11.15.6,12.74C1875.78,851.9,1888.41,869.49,1888.41,869.49Z"/><path class="cls-10" d="M1780.19,1164.14c.55,64.18,4.83,214.35,8,217.4,33.43,32.27,180.49-8.85,188.28-44.4s-29.63-455.88-86.73-472.66c-11.85-3.48-69,23.53-69,23.53s-16.08,19.46-22.6,52.58c-2.42,12.27-10.3,99.82-14.9,158.32-1.22,15.59-2.21,29.12-2.8,38.61C1780.13,1141.44,1780.08,1151,1780.19,1164.14Z"/><path class="cls-17" d="M1871.72,824.45c-6,14.47-33.74,30.15-45.39,36.13.05-.71.09-1.42.13-2.11l1.08-18.94,33.66-20.89C1869.11,817.41,1874.19,818.5,1871.72,824.45Z"/><path class="cls-4" d="M1815.1,841s60.89,5.66,63.83-32.31,12.79-62.82-26-68-47.44,8.68-51.5,21.12S1799.34,838.51,1815.1,841Z"/><path class="cls-18" d="M1803,757.81s12.49,40.8,20.7,37.17,18.39-10.23,19.8,2.57,21.16,31.59,31.19,30.43c20.68-2.38,36.21-80.31,26.18-91.7C1871.89,703.41,1762.92,718.72,1803,757.81Z"/><path class="cls-11" d="M1830.05,865.41c.75-.32,43.46-19.48,48.45-17.83s11.22,16.9,11.22,16.9l-69,23.53S1820.44,869.45,1830.05,865.41Z"/><path class="cls-11" d="M1780.19,1164.14c114.42-82.75,117.56-195.58,117.56-195.58-54.44,30.71-97.55,66.46-114.32,122.26-1.22,15.6-2.47,37.21-3.06,46.7C1780.13,1141.44,1780.08,1151,1780.19,1164.14Z"/><path class="cls-16" d="M1818.2,1236l-60.33,45.39a28.33,28.33,0,0,1-39.68-5.6l-22.59-30-163.95-217.85L1496.37,981l-38.49-51.14a67.46,67.46,0,0,1-12.7-51,13.55,13.55,0,0,0-10.29-15.35,89.66,89.66,0,0,0-70.11,12.92l-18.09,12.12L1328,901.09,1280,837.21,1297.32,823l158.55-130.16,1.72-1.4,15.58-12.79.44-.37,0,0,62.61,83.2-.32.21-16.64,11.17-33.52,22.47a8.38,8.38,0,0,0,1.72,14.81l24.41,9.17a114.74,114.74,0,0,1,51.37,38.44l36.88,49L1635,953l163.45,217.17,24.46,32.52A23.74,23.74,0,0,1,1818.2,1236Z"/><polygon class="cls-10" points="1346.69 888.57 1328.04 901.09 1279.96 837.21 1297.32 822.97 1346.69 888.57"/><polygon class="cls-10" points="1537.9 761.14 1518.09 773.6 1455.87 692.82 1474.14 677.87 1537.9 761.14"/><path class="cls-16" d="M1540.93,761.65h0a4.22,4.22,0,0,1-5.91-.83l-62-82.4a4.23,4.23,0,0,1,.84-5.91h0a4.21,4.21,0,0,1,5.9.84l62,82.4A4.21,4.21,0,0,1,1540.93,761.65Z"/><polygon class="cls-14" points="1496.37 981.01 1600.14 906.75 1634.97 953.03 1531.66 1027.91 1496.37 981.01"/><path class="cls-10" d="M1552.83,965.81a12.86,12.86,0,1,1,12.86,12.86A12.85,12.85,0,0,1,1552.83,965.81Z"/><path class="cls-19" d="M1015.51,1107.21c2.1-14.48-3.59-31.6-13-46.78l85-64,31.18,40.53-103.85,73.38C1015.17,1109.32,1015.35,1108.27,1015.51,1107.21Z"/><path class="cls-4" d="M1608.33,1097.28a12.18,12.18,0,0,0-1.24-.79c-2.1-2-7.63-8.38-8.31-10-2.17-5.22-4.78-3.18-3.86,1.71.2,1.06,1.18,4.36,1.54,5.45-6.3-.5-7.94-11.48-19.77-9.37a2.5,2.5,0,0,0-2.06,2.69c.62,6.2,3,24,10.81,28.77,9.49,5.88,16.88,2.89,27.56,2l12.91-.51-3.22-17.5h-6.47A13.3,13.3,0,0,1,1608.33,1097.28Z"/><path class="cls-10" d="M1866.12,906.09s111.46,46.2-73.63,183.07c-29.6,21.89-172.3,32.47-172.3,32.47s-5.18-16.46,3.34-24.15c0,0,113.41-46,122.7-52.76,23.45-17.13,57.76-96.25,77.12-117.09S1866.12,906.09,1866.12,906.09Z"/><path class="cls-14" d="M1818.2,1236l-60.33,45.39a28.33,28.33,0,0,1-39.68-5.6l-22.59-30,102.82-75.55,24.46,32.52A23.74,23.74,0,0,1,1818.2,1236Z"/><path class="cls-20" d="M690.3,1121.44c-10.29-22.1-42.11-22.22-51.9.11a25.76,25.76,0,0,0-2.08,13.37c2.95,27.14,70.38,124.63,78.71,132.93C730.19,1283,813.44,1313,813.44,1313l16.21-4.64a124.09,124.09,0,0,1-21.12-13c-22.67-17.27-56.18-45.78-62.13-49.56C736.2,1239.4,709.83,1163.39,690.3,1121.44Z"/><path class="cls-16" d="M820.25,1250.61h3.59a31.34,31.34,0,0,0,31.35-31.34V1205.6h157.22v13.67a31.34,31.34,0,0,0,31.34,31.34h3.6a54.58,54.58,0,0,1,54.58,54.58v319.18a54.58,54.58,0,0,1-54.58,54.58H820.25a54.58,54.58,0,0,1-54.58-54.58V1305.19A54.58,54.58,0,0,1,820.25,1250.61Z"/><path class="cls-11" d="M1021.33,1154.58v69.73H846.26v-69.14a19,19,0,0,1,19-19H1003A18.43,18.43,0,0,1,1021.33,1154.58Z"/><path class="cls-10" d="M1021.33,1154.58v69.73h-124v-69.14a19,19,0,0,1,19-19H1003A18.43,18.43,0,0,1,1021.33,1154.58Z"/><rect class="cls-10" x="833.64" y="1351.62" width="200.31" height="189.44" rx="21.57" transform="translate(1867.6 2892.67) rotate(180)"/><path class="cls-10" d="M1081.37,1209.69a35.47,35.47,0,0,0,.75,7.27l31.71,153.46c21.83-5,48.72-11.25,69.7-16.18l-31.36-151.76a35.77,35.77,0,0,0-70.8,7.21Z"/><path class="cls-21" d="M1183.91,1356.73l57.69,279.16a35.79,35.79,0,0,1-15.82,37.41l-24,5.65c-14.24-2.3-27.16-13.63-30.25-28.58l-57.68-279.16Z"/><path class="cls-22" d="M1159,1556.59l18.8,89.87c2.72,13,12.56,22.28,24,24.08l20-4.85c9.65-6.94,14.85-19.86,12.14-32.87l-20.73-99.09c-7.51,2.49-15.81,6.77-21.85,14.14C1184,1556.8,1170.37,1557.74,1159,1556.59Z"/><path class="cls-11" d="M1109.59,1378l82-16.94a6.87,6.87,0,0,0,5.32-8.09h0a6.87,6.87,0,0,0-8.09-5.33l-82,16.94a6.88,6.88,0,0,0-5.32,8.1h0A6.86,6.86,0,0,0,1109.59,1378Z"/><path class="cls-23" d="M715.31,977.18c.47-1.9-41.35,18.9-43.47,21.25-19.61,21.76-14,50.15-2.8,50.42,7.2.18,5.81,12.15,5.81,12.15L755,1027.08S745.38,970.78,715.31,977.18Z"/><path class="cls-23" d="M725.18,981.57s2.87-31.23-32-31.23c0,0,10.57,2.87,16,8.6,0,0-22.26-13.07-46.48,7s-9.17,70.44-16.54,80-36,11.47-32.55,42.39,91,69.65,85.42,95.23c0,0,34.31-50.43,9.78-73.45,0,0,12,11.27,13.17,24.65,0,0,3.25-26.13-13.38-34.49-14.72-7.4-26.78-34.46-25.5-39.29S725.18,981.57,725.18,981.57Z"/><path class="cls-14" d="M627.15,1657l-17.35-2.55s-58.35-46.36-67-132.88a154.8,154.8,0,0,1-.41-26.74,4.68,4.68,0,0,0-.61-3v0c-1.87-2.86-6.52-10-12.81-20.24-6.2-10-16.82-29-28.5-50.36-21-38.39-45.53-84.3-53.93-98.92-26.77-46.61-13.86-78-13.86-78s74.67-7.38,95.13-25.28l7.37,11.36s16.18,71.63,15.42,72q1.19,3.64,2.43,7.44c12.77,39.41,27.45,88.67,35.46,128.78,4.5,22.58,6.89,42.24,5.6,55.64-.44,4.6.1,11.66,1.32,20.38C602.59,1566.06,627.15,1657,627.15,1657Z"/><path class="cls-10" d="M663.55,1679h-72.4s-1.73-11,2.05-19.41c3.62-8,8.79-8.29.66-20.88,4.6,4.74,19.39,6.7,29.85,5.29,1.29,2.08,8.27,16,12.55,19.11C641,1666.46,662.09,1665.25,663.55,1679Z"/><path class="cls-13" d="M553,1309.85c-6.33,34.87-21.26,92.92-52.56,111.39-21-38.39-45.53-84.3-53.93-98.92-26.77-46.61-13.86-78-13.86-78s74.67-7.38,95.13-25.28l7.37,11.36s16.18,71.63,15.42,72Q551.74,1306.05,553,1309.85Z"/><path class="cls-14" d="M502.2,1249.76l.25-13.54c-27,3.4-93-32.24-93-32.24s-28.22,18.77-32.08,72.38c-1.89,26.16-13.82,136.82-15.14,169.86-.48,12-.64,20.52-.69,23.94v0a4.69,4.69,0,0,1-1.14,2.79,153.67,153.67,0,0,0-14.62,22.4C304.59,1572,326.12,1676,326.12,1676l9.56-2.43s34.81-107.89,57.55-154.55c3.87-7.91,7.37-14.07,10.31-17.64,8.55-10.38,17.57-28,26.46-49.26,16.8-40.14,33.12-93.11,44.75-134.12C475.57,1318.19,502.2,1249.76,502.2,1249.76Z"/><path class="cls-4" d="M646.7,1088.39c6.11-1.24,19.53-12,31.53-32.93l1.63,1.41,27.08,23.75a85.67,85.67,0,0,1-11.53,18.28c-7.82,9.27-14.2,14.72-22.27,19.49C675.32,1120.1,644.14,1087.3,646.7,1088.39Z"/><path class="cls-11" d="M686.79,1113.74s9,13,14.37,24.6,20,48.79,20,48.79-16.49,24.86-43.77,27.21c0,0-17.64-20.85-15.28-42.14S686.79,1113.74,686.79,1113.74Z"/><path class="cls-20" d="M706.94,1080.62a73.86,73.86,0,0,1-11.53,18.29c-14.92-14.24-16.86-31.23-15.56-42Z"/><path class="cls-4" d="M707.69,1092.52s-40.89-22.76-26.33-48,19.09-45.19,45.82-31.73,26.19,26,23.38,35.61S718.7,1097.79,707.69,1092.52Z"/><path class="cls-23" d="M757.47,1033.67c-1.88-11.21-7.57-12.28-11.54-11.53-15.1-25-39.77-15.23-39.77-15.23a55.67,55.67,0,0,1-32.23,19.36s4.75,8.83,24.3,14.29c6,1.67,12.75.66,19.28-1.54a108.78,108.78,0,0,1-27.75,10.46c25.77,2.36,50.28-21.19,52.82-23.71,1.19,3.65,3.28,11.29,2,16.88-1.7,7.59-8.44,21.34-4.32,23.12C740.29,1065.77,760.28,1050.48,757.47,1033.67Z"/><path class="cls-10" d="M383.69,1679H311.3s-1.74-11,2-19.41c3.63-8,9.3-11.68,7.94-21.4,4.6,4.74,12.1,10,22.56,8.63,1.29,2.08,8.28,13.21,12.57,16.29C361.14,1666.46,382.23,1665.25,383.69,1679Z"/><path class="cls-10" d="M665.26,1208.52c-9.32,3.25-22.39,5-35.76,6.48-19,2.08-38.69,3.5-49,7.61a65.25,65.25,0,0,0-13.74,7.5h0s-.14.09-.4.3a44.46,44.46,0,0,0-5.68,4.9,31,31,0,0,0-6.64,9.86c-3.77,9.32,1.23,35.18,4.43,49.32a12.84,12.84,0,0,1-6.58,14.25q-10.85,5.61-21.34,10.36l-1.1.5c.07-1.44.09-2.87.09-4.26a132.32,132.32,0,0,0-1.22-17.87c-1.72,9.84-8.21,20.47-14.25,28.65-97.15,39-165,22-163.92,2.62,3.83-67.42,49.3-124.77,49.3-124.77,84.8-98.61,256.34-124.57,256.34-124.57s8.21-1,18.13,10.92c14.26,17.16,15,21.63,15,21.63S692.67,1199,665.26,1208.52Z"/><path class="cls-11" d="M629.49,1215c-19,2.08-38.68,3.5-49,7.61C576.3,1159.74,606,1112.45,606,1112.45S625.33,1191.21,629.49,1215Z"/><path class="cls-11" d="M655.81,1079.41s7.47-9.44,12.52-9.14c0,0,20.41,28.58,20.57,41.69C688.9,1112,663.44,1078.08,655.81,1079.41Z"/><path class="cls-4" d="M753.83,1388.36s7.9,7,13.91,8.5,12.83,18.68,13.93,21.14-5.74-1.09-8.47-5.28-4.6-5.82-5.39-4.91.48,12.38,5,18.75,7.28,12,4,11.65-22.75-5.1-26.76-16.93S749,1409,739.81,1396.86,753.83,1388.36,753.83,1388.36Z"/><path class="cls-4" d="M649.49,1100.29S601.78,1105,598,1136s45.74,157.26,52.84,168.7c12.92,20.81,89,92.16,89,92.16l14-8.5s-54-91.37-62.33-99.93C678.38,1275,665.64,1111,649.49,1100.29Z"/><path class="cls-10" d="M673.93,1159.51s4.9-79.93-56.28-60.6,9.5,156.8,9.5,156.8,35.9-1.77,48.64-33.1Z"/><path class="cls-24" d="M2023.67,1359.2v8.12c0,2.84.91,5.16,2,5.16h296.16c1.13,0,2.05-2.32,2.05-5.16v-8.12c0-2.83-.92-5.16-2.05-5.16H2025.71C2024.58,1354,2023.67,1356.37,2023.67,1359.2Z"/><path class="cls-25" d="M2023.67,1359.2v8.12c0,2.84.84,5.16,1.87,5.16h235.12c1,0,1.88-2.32,1.88-5.16v-8.12c0-2.83-.85-5.16-1.88-5.16H2025.54C2024.51,1354,2023.67,1356.37,2023.67,1359.2Z"/><rect class="cls-26" x="2098.62" y="1372.48" width="210.26" height="306.46" transform="translate(4407.51 3051.43) rotate(180)"/><rect class="cls-27" x="2039.7" y="1372.48" width="210.26" height="306.46" transform="translate(4289.66 3051.43) rotate(180)"/><path class="cls-26" d="M2051,1381.14h187.66V1662H2051Zm185.63,2H2053V1660h183.61Z"/><rect class="cls-26" x="2052.01" y="1474.06" width="185.64" height="2.03"/><rect class="cls-26" x="2052.01" y="1568.79" width="185.64" height="2.03"/><path class="cls-26" d="M2125.81,1399.25h34.44a3,3,0,0,0,3-3h0a3,3,0,0,0-3-3h-34.44a3,3,0,0,0-3,3h0A3,3,0,0,0,2125.81,1399.25Z"/><path class="cls-26" d="M2125.81,1491.89h34.44a3,3,0,0,0,3-3h0a3,3,0,0,0-3-3h-34.44a3,3,0,0,0-3,3h0A3,3,0,0,0,2125.81,1491.89Z"/><path class="cls-26" d="M2125.81,1588.46h34.44a3,3,0,0,0,3-3h0a3,3,0,0,0-3-3h-34.44a3,3,0,0,0-3,3h0A3,3,0,0,0,2125.81,1588.46Z"/><path class="cls-26" d="M2191,1230.93s-19.7-23-1.22-37.57c0,0,13.5-8.17,24.51-7.51,0,0-15.6,26.15-10.55,28.76s15.28-30.4,15.28-30.4,30.72-3,40.6,1.77c0,0-26.26,21.49-20.73,22.77s33.9-19.81,33.9-19.81,28.59,4.86,27.06,22.3-11.37,22.83-15.7,22.37-29.66-10.13-30.21-6.59,14.69,15.15,25.37,15.69c0,0-20.16,22.23-33.56,15.81s-14.54-16.58-22.89-20.4-15.48-3.8-12,.09,18.56,7.67,23.34,16.12,9.06,14.14-4.8,12.06-36.4-12.23-37.38-23.84Z"/><path class="cls-26" d="M2285.77,1211.71s-77.66-3-94.81,19.22c0,0-3.8,11.36-15.47,21.7l-1.82,5s13.46-14.19,18.28-15C2192,1242.55,2184.42,1215,2285.77,1211.71Z"/><path class="cls-26" d="M2175.49,1252.63s-16.67,12.33-17.82,34.36l3,.27s5.32-22.78,14.95-31.68S2175.49,1252.63,2175.49,1252.63Z"/><path class="cls-28" d="M2122.09,1202s31.33-17.54,16.71-41.35c0,0-11.69-14.62-24.23-18.38,0,0,6.69,35.5,0,36.34s-4.59-40.1-4.59-40.1-33-15.88-46-14.63c0,0,20.48,34.68,13.79,33.84s-29.66-35.92-29.66-35.92-33.84-6.27-39.27,13.78,3.34,30.08,8.36,31.33,37.18.84,36.34,5-22.56,10.86-34.67,7.1c0,0,13.37,33,30.91,31.33s23-12.53,33.84-13.37,18.8,2.09,13.37,5-23.81,1-32.59,8.42-15.87,12,.42,15.4,45.54,1.25,51.38-11.28Z"/><path class="cls-28" d="M2024.34,1141.88s87.73,28.41,97.75,60.15c0,0-.42,14.21,8.36,30.5v6.27s-9.19-21.31-14.21-24.23C2116.24,1214.57,2135.88,1187,2024.34,1141.88Z"/><path class="cls-28" d="M2130.45,1232.53s13.53,20.54,5.81,45.55l-3.48-.93s3.38-27.55-3.7-41.4S2130.45,1232.53,2130.45,1232.53Z"/><path class="cls-27" d="M2171.94,1177.84s-41.3-23.13-22-54.52c0,0,15.42-19.27,31.94-24.23,0,0-8.81,46.81,0,47.91s6.06-52.87,6.06-52.87,43.5-20.92,60.57-19.27c0,0-27,45.71-18.17,44.6s39.1-47.35,39.1-47.35,44.6-8.26,51.76,18.17-4.4,39.65-11,41.3-49,1.1-47.91,6.61,29.74,14.32,45.7,9.36c0,0-17.62,43.5-40.74,41.3s-30.29-16.52-44.61-17.62-24.78,2.75-17.62,6.61,31.39,1.26,42.95,11.09,20.93,15.89-.55,20.29-60,1.66-67.73-14.86Z"/><path class="cls-28" d="M2300.8,1098.54s-115.65,37.45-128.86,79.3c0,0,.55,18.72-11,40.2v8.26s12.12-28.09,18.73-31.94C2179.65,1194.36,2153.77,1158,2300.8,1098.54Z"/><path class="cls-28" d="M2160.92,1218s-17.83,27.08-7.66,60l4.59-1.23s-4.46-36.31,4.87-54.57S2160.92,1218,2160.92,1218Z"/><path class="cls-26" d="M2170.55,1349.57a80.9,80.9,0,0,0,80.9-80.9h-161.8A80.9,80.9,0,0,0,2170.55,1349.57Z"/><path class="cls-26" d="M2252.57,1353.69h-164a10,10,0,0,1,10-10h144.07a10,10,0,0,1,10,10Z"/><rect class="cls-25" x="2086.99" y="1268.67" width="166.3" height="2.48"/><rect class="cls-23" y="1678.95" width="2503.35" height="8.2" rx="3.15"/><g class="cls-29"><path class="cls-10" d="M536.53,1010.75a26.05,26.05,0,0,1-11-2.43L420.17,959.59a26.34,26.34,0,0,1-12.82-34.86h0a26.29,26.29,0,0,1,34.86-12.8l105.38,48.73a26.32,26.32,0,0,1,12.82,34.84A26.31,26.31,0,0,1,536.53,1010.75Zm-105.31-97.9a23,23,0,0,0-20.83,13.29h0a23,23,0,0,0,11.18,30.41L527,1005.28a22.91,22.91,0,0,0,19.23-41.58L440.8,915A22.71,22.71,0,0,0,431.22,912.85Z"/><path class="cls-10" d="M536.53,1010.75a26.05,26.05,0,0,1-11-2.43l-51-23.59a26.26,26.26,0,0,1,22.05-47.67l51,23.6a26.32,26.32,0,0,1,12.82,34.84A26.31,26.31,0,0,1,536.53,1010.75ZM485.62,938a23.2,23.2,0,0,0-8,1.43,22.72,22.72,0,0,0-12.89,11.86h0a23,23,0,0,0,11.17,30.41l51,23.59a22.91,22.91,0,0,0,19.23-41.58l-51-23.6A22.76,22.76,0,0,0,485.62,938Z"/></g><g class="cls-29"><path class="cls-10" d="M1890.15,583.58a26.11,26.11,0,0,1,9.93-5.28L2011.89,547a26.36,26.36,0,0,1,32.37,18.22h0A26.29,26.29,0,0,1,2026,597.6l-111.81,31.27a26.26,26.26,0,0,1-24.08-45.29Zm143.65,6.18a22.92,22.92,0,0,0,7.23-23.62h0a23,23,0,0,0-28.24-15.89L1901,581.52a22.91,22.91,0,0,0,12.34,44.13l111.82-31.28A22.66,22.66,0,0,0,2033.8,589.76Z"/><path class="cls-10" d="M1890.15,583.58a26.11,26.11,0,0,1,9.93-5.28l54.14-15.15a26.26,26.26,0,0,1,14.15,50.58l-54.14,15.14a26.26,26.26,0,0,1-24.08-45.29Zm85.95,22.34a23.18,23.18,0,0,0,5.13-6.26,22.74,22.74,0,0,0,2.12-17.39h0a23,23,0,0,0-28.23-15.89L1901,581.52a22.91,22.91,0,0,0,12.34,44.13l54.14-15.15A22.71,22.71,0,0,0,1976.1,605.92Z"/></g><path class="cls-7" d="M938.51,1010.75c1.66,46.24-37.26,76.18-37.26,76.18,9.8-103.78,12-214.87-10.07-307.61,5,20,22.63,83.08,55.06,111.09C985,924.08,936.72,964.52,938.51,1010.75Z"/></g></g></svg>